<svg width="464" height="118" viewBox="0 0 464 118" fill="none" xmlns="http://www.w3.org/2000/svg">
<path fill-rule="evenodd" clip-rule="evenodd" d="M92.6579 66.5009C92.9261 65.9268 92.9898 65.4702 92.9898 64.7414V61.0862V57.4185C92.9898 55.725 93.0136 54.0387 92.9898 52.3513C92.9843 52.0673 92.9786 51.7833 92.9736 51.4993C92.9679 51.1842 92.9565 50.8864 92.8759 50.5799C92.8063 50.3139 92.7074 50.0554 92.5809 49.8112C92.3565 49.3759 92.0465 48.9868 91.6725 48.6712C91.0221 48.1247 90.1881 47.8 89.2923 47.8C88.3954 47.8 87.5612 48.1247 86.9108 48.6712C86.1738 49.2918 85.6211 50.2271 85.6242 51.2115C85.6249 51.4171 85.6242 51.6233 85.6242 51.8292V52.9032V54.3456V56.0673V57.9802V59.996V62.0263V63.9826V65.7761V67.319V68.5228V69.2994V69.658C85.6242 69.7035 85.6173 69.7482 85.6049 69.7918C85.5357 70.0276 85.3997 70.2324 85.2208 70.3848C85.0068 70.5665 84.7282 70.6749 84.4258 70.6749C83.9741 70.6749 83.4596 70.3986 83.317 69.9439C83.2704 69.7949 83.2721 69.6356 83.274 69.4797C83.2892 68.2025 83.2932 66.926 83.2959 65.649C83.2978 64.4115 83.2968 63.1742 83.2951 61.9368C83.2932 60.7598 83.2902 59.582 83.2873 58.4045C83.2856 57.5337 83.2846 56.6636 83.2846 55.7929C83.2846 51.5494 83.2789 41.6905 83.2789 41.6905C83.0971 36.8114 76.1508 36.5714 75.9595 41.6911V41.7245C75.8893 48.423 75.8532 55.2004 75.8532 61.678C75.8532 68.1382 75.8893 74.8968 75.9595 81.5788C75.9595 81.5901 75.9595 81.6021 75.9588 81.6134C75.9397 81.9588 75.7876 82.2711 75.5544 82.498C75.3197 82.7271 74.9943 82.8677 74.6339 82.8677C74.2735 82.8677 73.9492 82.7271 73.7134 82.498C73.4737 82.2647 73.3195 81.9406 73.3073 81.583C73.2396 75.0681 73.2056 67.8439 73.2056 60.3197C73.2056 52.784 73.2396 45.5495 73.3083 39.0274V38.9924C73.1959 33.9135 66.0632 34.2345 65.9586 38.9599C65.9586 43.6826 65.9567 48.4454 65.9567 53.1732C65.9567 54.5723 65.9575 55.9717 65.9575 57.3707V61.7197C65.9586 63.2217 65.9719 64.7232 65.97 66.2236C65.97 66.4522 65.9662 66.6801 65.9605 66.9082C65.9539 67.1312 65.9529 67.3563 65.9215 67.5772C65.912 67.6475 65.8987 67.7168 65.8816 67.7858C65.8158 68.0377 65.6866 68.2633 65.4641 68.4039C65.3928 68.4492 65.3175 68.4882 65.2386 68.5196C65.0788 68.5842 64.9067 68.6163 64.7338 68.6114C64.3095 68.5991 63.8901 68.3652 63.6714 67.9956C63.4936 67.6957 63.4907 67.3641 63.4867 67.0255C63.4717 66.0066 63.4601 64.9871 63.4508 63.9679C63.4373 62.5407 63.427 61.1139 63.4185 59.6871C63.4099 58.2189 63.4042 56.7506 63.4004 55.2827C63.3973 54.0712 63.3956 52.8592 63.3956 51.6476C63.3956 46.1582 63.4261 40.9347 63.4867 35.9803V35.9118C63.2606 30.7711 56.4121 31.0064 56.1991 35.8723V35.9116C56.1268 41.0944 56.0916 46.041 56.0916 50.7568C56.0916 55.4376 56.1268 60.3475 56.1972 65.4893C56.1981 65.5161 56.1962 65.5428 56.1926 65.569C56.142 65.8752 55.9851 66.1471 55.7645 66.347C55.5229 66.5659 55.2006 66.6964 54.8552 66.6912H54.8506C54.5081 66.686 54.1933 66.5453 53.9592 66.3198C53.7435 66.1127 53.5969 65.832 53.5581 65.5193C53.5551 65.4998 53.5543 65.4807 53.5543 65.4612L53.5496 35.6552C53.5505 35.0054 53.3784 34.3782 53.0653 33.8326C52.7496 33.2837 52.296 32.8166 51.7388 32.493C51.1749 32.1639 50.547 32 49.9232 32C49.3002 32 48.6716 32.1639 48.1077 32.493C47.5495 32.8166 47.0959 33.2837 46.7819 33.8326C46.4681 34.3782 46.2969 35.0054 46.2969 35.6552L46.2988 46.7472L46.2969 57.8402V57.8546C46.2997 58.0779 46.2446 58.2936 46.1409 58.4776C46.0401 58.6577 45.888 58.8147 45.6987 58.9251H45.6938C45.5067 59.0354 45.2955 59.0905 45.0842 59.0905C44.8693 59.0905 44.6573 59.0369 44.4747 58.9304V58.9251C44.2818 58.8119 44.1276 58.6549 44.0289 58.4776C43.9241 58.2931 43.868 58.0773 43.8716 57.8546L43.8765 57.8402L43.8716 41.7997C43.8765 41.1531 43.7101 40.5293 43.4047 39.9879C43.0956 39.4401 42.6439 38.9723 42.0838 38.6453C41.5228 38.317 40.8988 38.1514 40.2759 38.1514C39.6547 38.1514 39.0282 38.317 38.4679 38.6453C37.9088 38.9723 37.4105 39.4171 37.1478 39.9879C36.5383 41.3118 36.5801 42.4589 36.6125 44.117C36.6239 44.7372 36.6269 45.0397 36.6248 45.6605C36.6231 46.2835 36.6172 47.5743 36.6134 48.1979C36.6107 48.8146 36.6345 49.3157 36.6419 49.9779C36.6476 50.3868 36.6507 50.446 36.641 50.8543C36.6125 52.0702 36.6134 53.357 36.5784 54.5719C36.5773 54.5967 36.5763 54.621 36.5754 54.6453C36.5602 55.123 36.6087 55.6594 36.1493 55.9392L36.1513 55.9415C35.9801 56.0434 35.7832 56.0947 35.5835 56.0947C35.3848 56.0947 35.1879 56.0434 35.0177 55.9415L35.0194 55.9392C34.4983 55.6242 34.4527 54.9366 34.4557 54.39C34.4595 53.6379 34.4793 52.8883 34.4841 52.1361C34.4945 50.6415 34.4919 49.147 34.4919 47.6523C34.4926 47.0614 33.826 46.7195 33.3505 47.0662C32.6428 47.581 32.136 48.3672 32.0048 49.234C32.0009 49.2579 32 49.2818 32 49.3057L32.0038 54.8843C32.0152 55.5462 32.1636 56.1721 32.4509 56.7171C32.7438 57.2738 33.1706 57.7433 33.7328 58.0846H33.7385C34.3091 58.4284 34.9481 58.6023 35.5835 58.6023C36.2188 58.6023 36.8588 58.4288 37.4295 58.0846H37.4343C37.9953 57.7446 38.4175 57.2749 38.7087 56.7228C38.9959 56.1773 39.1452 55.5516 39.164 54.8989V54.8843C39.1604 52.1897 39.0244 44.51 39.2004 42.0167C39.2146 41.8211 39.2146 41.3903 39.3095 41.2216C39.4037 41.0543 39.5437 40.9103 39.7148 40.8099C39.885 40.7104 40.0809 40.6597 40.2759 40.6597C40.4718 40.6597 40.6669 40.7104 40.8369 40.8099C41.0092 40.9103 41.1479 41.0543 41.242 41.2216C41.3383 41.3918 41.3896 41.5868 41.3877 41.7853L41.383 41.7997V57.8402H41.3877C41.3811 58.5011 41.5522 59.1421 41.8659 59.7019C42.1846 60.271 42.6489 60.7557 43.2185 61.09L43.2204 61.0862C43.8024 61.4272 44.4463 61.5983 45.0842 61.5983C45.7282 61.5983 46.3741 61.4281 46.9504 61.09L46.9494 61.0875C47.5228 60.7506 47.985 60.2687 48.3026 59.703C48.6193 59.1389 48.7906 58.4923 48.7809 57.8253L48.7821 46.7472L48.7809 35.6552C48.7809 35.4487 48.8351 35.2483 48.9342 35.0767C49.0301 34.9079 49.1746 34.7616 49.3536 34.6579C49.5257 34.5579 49.7226 34.5078 49.9232 34.5078C50.1239 34.5078 50.3209 34.5579 50.4928 34.6579C50.6716 34.7616 50.8163 34.9083 50.9133 35.0767C51.0111 35.2483 51.0663 35.4487 51.0663 35.6552H51.0615V65.4883V65.5199L51.0663 65.5773C51.1254 66.5799 51.5628 67.4749 52.2342 68.122C52.9065 68.7697 53.8158 69.1713 54.8162 69.1885C55.8158 69.2044 56.7384 68.8338 57.4296 68.2079C58.1974 67.5137 58.6746 66.5034 58.6831 65.462C58.6926 64.2681 58.6974 63.0641 58.686 61.8708C58.6736 60.6404 58.6936 59.3951 58.686 58.1653C58.6774 56.9055 58.689 55.6418 58.686 54.3818C58.6822 53.1646 58.686 51.965 58.686 50.7472C58.686 45.5901 58.6784 40.6249 58.686 35.9344C58.689 34.36 60.9399 34.2621 60.9399 35.9426V51.6384V67.3343C60.9399 68.3738 61.4279 69.3256 62.106 70.0075L62.1031 70.01C62.7851 70.696 63.7285 71.1205 64.7697 71.1205C66.0423 71.1205 67.293 70.442 67.9623 69.3495C68.1393 69.0632 68.2715 68.7506 68.3752 68.4318C68.5948 67.769 68.5482 66.9824 68.5387 66.2898C68.5178 64.8561 68.5273 63.4267 68.5294 61.9928C68.5313 60.5391 68.5349 59.0848 68.5378 57.6308C68.5416 56.1384 68.5444 54.6459 68.5444 53.1531C68.5444 48.1903 68.4788 43.4988 68.5368 39.0417C68.5672 37.5782 70.7346 37.6496 70.7346 39.0379C70.6605 46.1844 70.7118 53.4023 70.7118 60.3197C70.7118 67.2456 70.75 74.4757 70.825 81.6321V81.6612C70.8573 82.6952 71.2959 83.6234 71.9806 84.2905C72.671 84.9632 73.6078 85.3753 74.6339 85.3753C75.6602 85.3753 76.5968 84.9632 77.2874 84.2905C77.973 83.6234 78.3525 82.6287 78.3858 81.5945V61.679C78.3858 54.6128 78.322 47.821 78.3858 41.758C78.4457 40.1275 80.6986 40.1591 80.7605 41.779C80.7909 46.0075 80.7605 50.6484 80.7605 55.7722V59.5781V63.1962V66.6459V68.3136C80.7605 68.863 80.7234 69.4256 80.7595 69.9725C80.8194 70.8753 81.3588 71.715 82.0235 72.2949C82.677 72.8515 83.5193 73.1826 84.4258 73.1826C85.3313 73.1826 86.1738 72.8515 86.8271 72.2949C87.4737 71.7451 87.9351 70.9719 88.0892 70.0817C88.0919 70.0651 88.094 70.0477 88.0949 70.0311L88.1063 69.8674C88.1073 69.8561 88.1073 69.8448 88.1073 69.8341V51.2942C88.1073 51.245 88.1149 51.1951 88.1299 51.1484C88.2024 50.9285 88.3364 50.7367 88.5088 50.591C88.7208 50.4135 88.9954 50.3074 89.2923 50.3074C89.589 50.3074 89.8629 50.4139 90.075 50.591C90.2414 50.7316 90.3707 50.9146 90.4458 51.124C90.4639 51.1737 90.4725 51.2272 90.4725 51.281V52.0153V53.9397V56.6372V59.6906V62.6807V65.1923C90.4725 65.8115 90.4582 66.4344 90.4677 67.0528C90.4753 67.5102 90.771 67.9531 91.2819 67.8594C91.8087 67.7629 92.249 67.2412 92.5029 66.7985C92.559 66.6994 92.6113 66.6006 92.6579 66.5009Z" fill="#1FDCB3"/>
<path d="M252.245 47.5489H259.442C260.438 47.5489 261.318 47.69 262.082 47.9723C262.862 48.2379 263.493 48.6114 263.974 49.0929C264.721 49.84 265.095 50.7531 265.095 51.8322V51.882C265.095 52.4797 265.004 53.0027 264.821 53.4509C264.655 53.8992 264.431 54.2893 264.149 54.6213C263.866 54.9534 263.543 55.2356 263.177 55.468C262.829 55.6839 262.48 55.8665 262.132 56.0159C262.646 56.1487 263.144 56.3313 263.626 56.5638C264.107 56.7796 264.522 57.0618 264.871 57.4105C265.236 57.7425 265.527 58.141 265.742 58.6058C265.958 59.0541 266.066 59.577 266.066 60.1747V60.2245C266.066 60.955 265.917 61.6191 265.618 62.2167C265.319 62.7978 264.896 63.2959 264.348 63.7109C263.8 64.1093 263.144 64.4248 262.381 64.6572C261.617 64.873 260.762 64.981 259.816 64.981H252.245V47.5489ZM263.775 51.9567C263.775 50.9938 263.402 50.2218 262.654 49.6408C261.907 49.0431 260.828 48.7443 259.417 48.7443H253.54V55.5926H259.293C259.94 55.5926 260.538 55.5178 261.086 55.3684C261.633 55.2024 262.107 54.97 262.505 54.6711C262.903 54.3723 263.211 53.9988 263.426 53.5505C263.659 53.1023 263.775 52.5876 263.775 52.0065V51.9567ZM264.746 60.1747C264.746 59.0956 264.29 58.2655 263.377 57.6844C262.48 57.0867 261.169 56.7879 259.442 56.7879H253.54V63.7856H259.865C261.36 63.7856 262.547 63.4702 263.426 62.8393C264.306 62.1918 264.746 61.3202 264.746 60.2245V60.1747Z" fill="#212930"/>
<path d="M273.128 47.5489H274.423V64.981H273.128V47.5489Z" fill="#212930"/>
<path d="M290.869 65.2798C289.541 65.2798 288.337 65.0391 287.258 64.5576C286.196 64.0595 285.283 63.4038 284.519 62.5903C283.755 61.7602 283.166 60.8056 282.751 59.7264C282.336 58.6473 282.128 57.5101 282.128 56.3147V56.2649C282.128 55.0696 282.336 53.9324 282.751 52.8532C283.183 51.7575 283.78 50.7946 284.544 49.9645C285.308 49.1344 286.229 48.4786 287.308 47.9972C288.387 47.4991 289.591 47.2501 290.919 47.2501C292.231 47.2501 293.426 47.4991 294.505 47.9972C295.584 48.4786 296.506 49.1344 297.269 49.9645C298.033 50.778 298.622 51.7243 299.037 52.8034C299.452 53.8826 299.66 55.0198 299.66 56.2151V56.2649C299.66 57.4603 299.444 58.6058 299.012 59.7015C298.597 60.7807 298.008 61.7353 297.244 62.5654C296.481 63.3955 295.551 64.0595 294.455 64.5576C293.376 65.0391 292.181 65.2798 290.869 65.2798ZM290.919 64.1094C291.998 64.1094 292.986 63.9101 293.882 63.5117C294.796 63.0966 295.576 62.5405 296.223 61.8432C296.887 61.1293 297.402 60.2992 297.767 59.3529C298.133 58.4066 298.315 57.3939 298.315 56.3147V56.2649C298.315 55.1858 298.124 54.1731 297.742 53.2268C297.377 52.2639 296.863 51.4338 296.198 50.7365C295.551 50.0226 294.771 49.4581 293.858 49.0431C292.944 48.628 291.948 48.4205 290.869 48.4205C289.79 48.4205 288.794 48.628 287.881 49.0431C286.984 49.4415 286.204 49.9977 285.54 50.7116C284.893 51.4089 284.386 52.2307 284.021 53.177C283.656 54.1233 283.473 55.136 283.473 56.2151V56.2649C283.473 57.3441 283.656 58.3651 284.021 59.328C284.403 60.2743 284.917 61.1044 285.565 61.8183C286.229 62.5156 287.018 63.0717 287.931 63.4868C288.844 63.9018 289.84 64.1094 290.919 64.1094Z" fill="#212930"/>
<path d="M312.467 65.23C311.072 65.23 309.81 64.9975 308.681 64.5327C307.569 64.0678 306.49 63.3706 305.444 62.4408L306.291 61.4696C306.772 61.9179 307.245 62.308 307.71 62.6401C308.192 62.9555 308.681 63.2211 309.179 63.437C309.677 63.6362 310.2 63.7939 310.748 63.9101C311.296 64.0097 311.894 64.0595 312.541 64.0595C313.189 64.0595 313.786 63.9765 314.334 63.8105C314.882 63.6279 315.347 63.3872 315.729 63.0883C316.111 62.7729 316.409 62.4076 316.625 61.9926C316.841 61.5609 316.949 61.0961 316.949 60.598V60.5482C316.949 60.0834 316.874 59.6683 316.725 59.3031C316.592 58.9378 316.335 58.6058 315.953 58.307C315.588 58.0081 315.09 57.7425 314.459 57.5101C313.828 57.261 313.014 57.0369 312.018 56.8377C310.972 56.6219 310.076 56.3728 309.329 56.0906C308.582 55.7918 307.967 55.4514 307.486 55.0696C307.021 54.6711 306.681 54.2146 306.465 53.6999C306.249 53.1853 306.141 52.5959 306.141 51.9318V51.882C306.141 51.2345 306.282 50.6369 306.565 50.089C306.847 49.5245 307.237 49.0348 307.735 48.6197C308.233 48.2047 308.822 47.8809 309.503 47.6485C310.184 47.4161 310.931 47.2999 311.744 47.2999C313.006 47.2999 314.094 47.4742 315.007 47.8228C315.936 48.1715 316.841 48.7027 317.721 49.4166L316.899 50.4376C316.069 49.7238 315.231 49.2174 314.384 48.9186C313.554 48.6197 312.657 48.4703 311.695 48.4703C311.047 48.4703 310.458 48.5616 309.926 48.7442C309.412 48.9103 308.964 49.1427 308.582 49.4415C308.216 49.7404 307.934 50.089 307.735 50.4875C307.536 50.8859 307.436 51.3092 307.436 51.7575V51.8073C307.436 52.2722 307.503 52.6955 307.635 53.0774C307.785 53.4426 308.042 53.7829 308.407 54.0984C308.789 54.3972 309.312 54.6711 309.976 54.9202C310.64 55.1692 311.487 55.4016 312.516 55.6174C314.542 56.0325 316.003 56.6219 316.899 57.3856C317.796 58.1326 318.244 59.1454 318.244 60.4237V60.4735C318.244 61.1708 318.095 61.8183 317.796 62.4159C317.514 62.997 317.115 63.4951 316.6 63.9101C316.102 64.3252 315.496 64.6489 314.783 64.8813C314.085 65.1138 313.313 65.23 312.467 65.23Z" fill="#212930"/>
<path d="M325.478 47.5489H326.773V64.981H325.478V47.5489Z" fill="#212930"/>
<path d="M343.244 65.2798C341.866 65.2798 340.629 65.0474 339.533 64.5825C338.454 64.1011 337.541 63.4536 336.794 62.6401C336.047 61.8266 335.474 60.8803 335.075 59.8011C334.677 58.7054 334.478 57.5433 334.478 56.3147V56.2649C334.478 55.0862 334.677 53.9573 335.075 52.8781C335.49 51.7824 336.072 50.8195 336.819 49.9894C337.582 49.1593 338.495 48.4952 339.558 47.9972C340.62 47.4991 341.799 47.2501 343.094 47.2501C343.808 47.2501 344.455 47.2999 345.037 47.3995C345.634 47.4991 346.182 47.6485 346.68 47.8478C347.195 48.047 347.676 48.2877 348.125 48.5699C348.589 48.8522 349.038 49.1759 349.469 49.5412L348.623 50.5124C347.942 49.9147 347.162 49.4166 346.282 49.0182C345.418 48.6197 344.331 48.4205 343.019 48.4205C341.957 48.4205 340.986 48.628 340.106 49.0431C339.226 49.4581 338.462 50.0226 337.815 50.7365C337.184 51.4504 336.694 52.2805 336.345 53.2268C335.997 54.1731 335.822 55.1692 335.822 56.2151V56.2649C335.822 57.3939 335.988 58.4398 336.321 59.4027C336.669 60.3656 337.167 61.1957 337.815 61.893C338.462 62.5903 339.242 63.1381 340.156 63.5366C341.085 63.935 342.131 64.1343 343.293 64.1343C343.841 64.1343 344.381 64.0844 344.912 63.9848C345.443 63.8686 345.941 63.7192 346.406 63.5366C346.888 63.354 347.336 63.1464 347.751 62.914C348.166 62.665 348.531 62.4077 348.847 62.142V57.1365H343.019V55.9412H350.092V62.665C349.295 63.3623 348.307 63.9765 347.128 64.5078C345.966 65.0225 344.671 65.2798 343.244 65.2798Z" fill="#212930"/>
<path d="M357.424 47.5489H358.645L370.673 62.7148V47.5489H371.918V64.981H370.947L358.669 49.4913V64.981H357.424V47.5489Z" fill="#212930"/>
<path d="M386.391 47.4244H387.636L395.755 64.9809H394.335L392.119 60.1H381.834L379.618 64.9809H378.273L386.391 47.4244ZM391.571 58.9295L386.989 48.8439L382.382 58.9295H391.571Z" fill="#212930"/>
<path d="M402.086 47.5489H403.381V63.7856H413.616V64.981H402.086V47.5489Z" fill="#212930"/>
<path d="M426.222 65.23C424.828 65.23 423.566 64.9975 422.437 64.5327C421.325 64.0678 420.246 63.3706 419.2 62.4408L420.047 61.4696C420.528 61.9179 421.001 62.308 421.466 62.6401C421.947 62.9555 422.437 63.2211 422.935 63.437C423.433 63.6362 423.956 63.7939 424.504 63.9101C425.052 64.0097 425.65 64.0595 426.297 64.0595C426.945 64.0595 427.542 63.9765 428.09 63.8105C428.638 63.6279 429.103 63.3872 429.485 63.0883C429.867 62.7729 430.165 62.4076 430.381 61.9926C430.597 61.5609 430.705 61.0961 430.705 60.598V60.5482C430.705 60.0834 430.63 59.6683 430.481 59.3031C430.348 58.9378 430.091 58.6058 429.709 58.307C429.344 58.0081 428.846 57.7425 428.215 57.5101C427.584 57.261 426.77 57.0369 425.774 56.8377C424.728 56.6219 423.832 56.3728 423.085 56.0906C422.338 55.7918 421.723 55.4514 421.242 55.0696C420.777 54.6711 420.437 54.2146 420.221 53.6999C420.005 53.1853 419.897 52.5959 419.897 51.9318V51.882C419.897 51.2345 420.038 50.6369 420.32 50.089C420.603 49.5245 420.993 49.0348 421.491 48.6197C421.989 48.2047 422.578 47.8809 423.259 47.6485C423.94 47.4161 424.687 47.2999 425.5 47.2999C426.762 47.2999 427.849 47.4742 428.763 47.8228C429.692 48.1715 430.597 48.7027 431.477 49.4166L430.655 50.4376C429.825 49.7238 428.987 49.2174 428.14 48.9186C427.31 48.6197 426.413 48.4703 425.45 48.4703C424.803 48.4703 424.214 48.5616 423.682 48.7442C423.168 48.9103 422.719 49.1427 422.338 49.4415C421.972 49.7404 421.69 50.089 421.491 50.4875C421.292 50.8859 421.192 51.3092 421.192 51.7575V51.8073C421.192 52.2722 421.258 52.6955 421.391 53.0774C421.541 53.4426 421.798 53.7829 422.163 54.0984C422.545 54.3972 423.068 54.6711 423.732 54.9202C424.396 55.1692 425.243 55.4016 426.272 55.6174C428.298 56.0325 429.759 56.6219 430.655 57.3856C431.552 58.1326 432 59.1454 432 60.4237V60.4735C432 61.1708 431.851 61.8183 431.552 62.4159C431.269 62.997 430.871 63.4951 430.356 63.9101C429.858 64.3252 429.252 64.6489 428.538 64.8813C427.841 65.1138 427.069 65.23 426.222 65.23Z" fill="#212930"/>
<path d="M121.976 47.8194H129.397C130.393 47.8194 131.273 47.9605 132.036 48.2427C132.817 48.5083 133.456 48.8819 133.954 49.3633C134.701 50.1436 135.075 51.0733 135.075 52.1525V52.2023C135.075 52.7667 134.992 53.2731 134.826 53.7213C134.676 54.153 134.469 54.5348 134.203 54.8669C133.937 55.1823 133.639 55.4562 133.306 55.6887C132.991 55.9045 132.659 56.0871 132.31 56.2365C132.825 56.386 133.306 56.5852 133.755 56.8342C134.22 57.0666 134.618 57.3489 134.95 57.6809C135.282 58.0129 135.548 58.4114 135.747 58.8762C135.946 59.3245 136.046 59.8475 136.046 60.4451V60.4949C136.046 61.242 135.896 61.9144 135.598 62.5121C135.299 63.0931 134.867 63.5912 134.303 64.0062C133.755 64.4047 133.091 64.7118 132.31 64.9276C131.53 65.1435 130.667 65.2514 129.72 65.2514H121.976V47.8194ZM133.082 52.4264C133.082 51.5631 132.75 50.8741 132.086 50.3594C131.422 49.8448 130.468 49.5875 129.222 49.5875H123.918V55.5891H129.073C130.268 55.5891 131.231 55.3317 131.962 54.8171C132.709 54.2858 133.082 53.5055 133.082 52.4762V52.4264ZM134.054 60.3206C134.054 59.3743 133.663 58.6438 132.883 58.1292C132.103 57.5979 130.949 57.3323 129.422 57.3323H123.918V63.4833H129.77C131.098 63.4833 132.144 63.2093 132.908 62.6615C133.672 62.1136 134.054 61.3499 134.054 60.3704V60.3206Z" fill="#212930"/>
<path d="M142.685 47.8194H155.286V49.6124H144.652V55.5642H154.165V57.3572H144.652V63.4584H155.41V65.2514H142.685V47.8194Z" fill="#212930"/>
<path d="M168.57 47.6948H170.413L178.357 65.2514H176.241L174.198 60.6443H164.71L162.644 65.2514H160.626L168.57 47.6948ZM173.427 58.8513L169.467 49.9859L165.482 58.8513H173.427Z" fill="#212930"/>
<path d="M191.327 65.5502C190.065 65.5502 188.903 65.3178 187.841 64.8529C186.778 64.3881 185.857 63.7572 185.076 62.9603C184.296 62.1468 183.682 61.1922 183.234 60.0965C182.802 59.0007 182.586 57.8303 182.586 56.5852V56.5353C182.586 55.3068 182.802 54.1447 183.234 53.0489C183.682 51.9532 184.296 50.9986 185.076 50.1851C185.857 49.355 186.786 48.7075 187.866 48.2427C188.945 47.7612 190.123 47.5205 191.402 47.5205C192.199 47.5205 192.913 47.5869 193.543 47.7197C194.191 47.8525 194.789 48.0435 195.336 48.2925C195.884 48.5249 196.391 48.8154 196.856 49.1641C197.32 49.4961 197.769 49.8697 198.2 50.2847L196.856 51.7291C196.108 51.0318 195.303 50.459 194.44 50.0108C193.593 49.5625 192.572 49.3384 191.377 49.3384C190.414 49.3384 189.517 49.521 188.687 49.8863C187.874 50.2515 187.16 50.7579 186.546 51.4054C185.948 52.0528 185.475 52.8165 185.126 53.6964C184.794 54.5597 184.628 55.4894 184.628 56.4855V56.5353C184.628 57.5481 184.794 58.4944 185.126 59.3743C185.475 60.2376 185.948 60.993 186.546 61.6404C187.16 62.2879 187.874 62.8026 188.687 63.1844C189.517 63.5497 190.414 63.7323 191.377 63.7323C192.572 63.7323 193.602 63.5165 194.465 63.0848C195.328 62.6366 196.175 62.014 197.005 61.2171L198.3 62.4871C197.852 62.952 197.379 63.3753 196.88 63.7572C196.399 64.1224 195.876 64.4379 195.312 64.7035C194.747 64.9691 194.141 65.1767 193.494 65.3261C192.846 65.4755 192.124 65.5502 191.327 65.5502Z" fill="#212930"/>
<path d="M212.065 65.5502C210.736 65.5502 209.524 65.3095 208.429 64.828C207.35 64.3466 206.42 63.6991 205.64 62.8856C204.859 62.0555 204.253 61.1009 203.822 60.0218C203.407 58.926 203.199 57.7805 203.199 56.5852V56.5353C203.199 55.34 203.415 54.1945 203.847 53.0987C204.278 52.003 204.884 51.0484 205.664 50.2349C206.445 49.4048 207.383 48.749 208.479 48.2676C209.574 47.7695 210.786 47.5205 212.114 47.5205C213.442 47.5205 214.646 47.7612 215.725 48.2427C216.821 48.7241 217.759 49.3799 218.539 50.21C219.32 51.0235 219.917 51.9781 220.332 53.0738C220.764 54.153 220.98 55.2902 220.98 56.4855V56.5353C220.98 57.7307 220.764 58.8762 220.332 59.9719C219.901 61.0677 219.295 62.0306 218.514 62.8607C217.734 63.6742 216.796 64.33 215.7 64.828C214.605 65.3095 213.393 65.5502 212.065 65.5502ZM212.114 63.7323C213.11 63.7323 214.024 63.5497 214.854 63.1844C215.7 62.8026 216.423 62.2879 217.02 61.6404C217.618 60.993 218.083 60.2376 218.415 59.3743C218.763 58.511 218.938 57.5813 218.938 56.5852V56.5353C218.938 55.5392 218.763 54.6095 218.415 53.7462C218.083 52.8663 217.61 52.1026 216.995 51.4552C216.381 50.8077 215.651 50.293 214.804 49.9112C213.974 49.5293 213.061 49.3384 212.065 49.3384C211.068 49.3384 210.147 49.5293 209.3 49.9112C208.47 50.2764 207.756 50.7828 207.159 51.4303C206.561 52.0777 206.088 52.8331 205.739 53.6964C205.407 54.5597 205.241 55.4894 205.241 56.4855V56.5353C205.241 57.5315 205.407 58.4695 205.739 59.3494C206.088 60.2127 206.569 60.9681 207.184 61.6155C207.798 62.263 208.52 62.7777 209.35 63.1595C210.197 63.5414 211.118 63.7323 212.114 63.7323Z" fill="#212930"/>
<path d="M227.755 47.8194H229.598L240.58 61.7899V47.8194H242.498V65.2514H240.929L229.673 50.9571V65.2514H227.755V47.8194Z" fill="#212930"/>
</svg>
